<svg id="flat" height="512" viewBox="0 0 512 512" width="512" xmlns="http://www.w3.org/2000/svg"><path d="m448 400v-240a16 16 0 0 0 -16-16h-352a16 16 0 0 0 -16 16v240z" fill="#4f5dff"/><path d="m352 160a96 96 0 1 1 -96-96 95.6 95.6 0 0 1 96 96z" fill="#ffa100"/><path d="m328 208v15.49a95.984 95.984 0 0 1 -144 0v-15.49a32 32 0 0 1 32-32h80a32 32 0 0 1 32 32z" fill="#ffc431"/><path d="m272 152v36a20.248 20.248 0 0 1 -.4 4 20 20 0 0 1 -39.6-4v-36z" fill="#ffceb6"/><path d="m272 152v36a20.248 20.248 0 0 1 -.4 4h-11.6a19.994 19.994 0 0 1 -20-20v-20z" fill="#ffbfa1"/><path d="m480 400v24a16 16 0 0 1 -16 16h-424a16 16 0 0 1 -16-16v-24z" fill="#d1e4ff"/><path d="m328 400a8 8 0 0 1 -2.34 5.66l-8 8a8.008 8.008 0 0 1 -5.66 2.34h-112a8.008 8.008 0 0 1 -5.66-2.34l-8-8a8 8 0 0 1 -2.34-5.66z" fill="#bed3f7"/><path d="m184 360h-44a36 36 0 0 1 -36-36 36 36 0 0 1 36-36h44z" fill="#697dff"/><path d="m184 360v-72h188a36 36 0 0 1 36 36 36 36 0 0 1 -36 36z" fill="#788dff"/><path d="m256 184a24 24 0 0 1 -24-24v-8l16-16h32v24a24 24 0 0 1 -24 24z" fill="#ffceb6"/><path d="m280 136 6.633-13.267a12.939 12.939 0 0 0 1.367-5.789 12.944 12.944 0 0 0 -12.944-12.944h-19.056a24 24 0 0 0 -24 24v24l16-16z" fill="#c47220"/><g fill="#5c6cff"><path d="m208 328h16v16h-16z"/><path d="m240 328h16v16h-16z"/><path d="m272 328h16v16h-16z"/><path d="m304 304h16v40h-16z"/></g></svg>